<?xml version="1.0" standalone="no"?>
<!DOCTYPE svg PUBLIC "-//W3C//DTD SVG 20010904//EN"
 "http://www.w3.org/TR/2001/REC-SVG-20010904/DTD/svg10.dtd">
<svg version="1.0" xmlns="http://www.w3.org/2000/svg"
 width="512.000000pt" height="512.000000pt" viewBox="0 0 512.000000 512.000000"
 preserveAspectRatio="xMidYMid meet">

<g transform="translate(0.000000,512.000000) scale(0.100000,-0.100000)"
fill="#000000" stroke="none">
<path d="M2290 5099 c-347 -44 -759 -220 -932 -396 -167 -171 -301 -425 -353
-673 -49 -231 -34 -523 40 -773 l17 -57 44 49 c72 80 145 100 234 65 33 -13
47 -28 77 -83 47 -85 160 -258 175 -267 8 -5 9 4 3 32 -29 157 -34 362 -10
499 19 106 62 222 112 295 l37 55 12 -48 c19 -75 61 -152 104 -191 46 -42 66
-46 55 -13 -4 12 -9 69 -12 127 -5 107 8 185 44 270 l15 35 27 -80 c88 -261
253 -420 464 -448 26 -4 47 -3 47 2 0 5 -11 28 -24 52 -45 81 -76 193 -78 278
-1 84 12 136 47 191 32 49 123 130 146 130 4 0 29 -33 56 -72 175 -264 471
-456 769 -500 l81 -12 26 -67 c62 -158 94 -329 78 -414 -5 -28 -8 -51 -7 -53
2 -1 47 66 101 150 54 84 98 154 99 155 2 2 23 6 47 9 63 9 149 -12 201 -46
24 -16 46 -30 49 -30 26 -1 48 431 30 602 -44 432 -220 761 -508 951 -35 23
-63 44 -63 47 0 3 30 25 68 48 l67 43 -55 -6 c-63 -8 -177 -30 -202 -40 -16
-6 -18 3 -20 94 l-3 100 -68 -84 -68 -83 -73 33 c-120 56 -299 102 -476 124
-97 13 -325 12 -420 0z"/>
<path d="M1953 3510 c-44 -15 -78 -35 -117 -71 -31 -28 -56 -54 -56 -58 0 -4
51 4 113 17 134 27 270 26 385 -6 39 -11 72 -18 72 -15 0 21 -70 86 -122 113
-81 44 -180 51 -275 20z"/>
<path d="M3017 3516 c-71 -20 -187 -106 -187 -139 0 -3 35 4 78 14 126 31 271
35 372 11 47 -11 93 -24 104 -28 16 -6 17 -4 8 13 -19 34 -76 84 -127 111 -60
31 -174 39 -248 18z"/>
<path d="M1991 3272 c-50 -27 -73 -75 -68 -140 10 -141 193 -182 267 -60 22
36 26 97 9 131 -24 46 -90 102 -76 65 7 -20 -12 -48 -32 -48 -29 0 -47 28 -33
51 11 17 9 19 -11 19 -12 0 -38 -8 -56 -18z"/>
<path d="M3033 3270 c-106 -64 -76 -242 45 -266 114 -22 206 76 173 186 -6 21
-26 51 -44 66 l-32 27 -5 -29 c-4 -22 -11 -30 -32 -32 -31 -4 -48 29 -28 53
19 23 -38 19 -77 -5z"/>
</g>
</svg>
