<?xml version="1.0" standalone="no"?>
<!DOCTYPE svg PUBLIC "-//W3C//DTD SVG 20010904//EN"
 "http://www.w3.org/TR/2001/REC-SVG-20010904/DTD/svg10.dtd">
<svg version="1.0" xmlns="http://www.w3.org/2000/svg"
 width="268.000000pt" height="376.000000pt" viewBox="0 0 268.000000 376.000000"
 preserveAspectRatio="xMidYMid meet">

<g transform="translate(0.000000,376.000000) scale(0.100000,-0.100000)"
fill="#000000" stroke="none">
<path d="M1175 3265 c-129 -27 -187 -63 -217 -134 -44 -103 -60 -127 -103
-159 -84 -64 -113 -151 -135 -412 -13 -161 -13 -247 2 -342 10 -69 13 -76 29
-67 26 13 37 11 60 -12 11 -11 23 -18 27 -14 3 3 7 74 7 158 2 168 -3 150 91
326 44 83 59 99 104 112 33 10 49 8 127 -19 120 -42 176 -47 311 -28 212 30
258 21 297 -59 14 -31 16 -54 10 -143 -6 -102 -5 -112 24 -202 20 -60 31 -116
32 -155 l1 -60 14 32 c15 35 40 53 73 53 12 0 21 1 21 3 0 1 7 52 15 112 7 61
17 194 21 296 6 157 4 197 -11 265 -36 166 -120 293 -218 328 -23 8 -82 20
-130 25 -66 8 -110 20 -175 49 -78 36 -173 64 -205 61 -7 -1 -39 -7 -72 -14z"/>
<path d="M1033 2330 c-46 -9 -83 -26 -83 -38 0 -4 4 -14 10 -22 7 -12 16 -12
59 -1 28 7 75 12 103 11 77 -3 80 -2 76 22 -5 35 -73 46 -165 28z"/>
<path d="M1502 2333 c-27 -5 -40 -29 -24 -45 6 -6 46 -12 89 -14 43 -2 94 -5
113 -6 29 -3 36 1 38 18 2 17 -5 24 -30 33 -37 14 -151 22 -186 14z"/>
<path d="M1085 2220 c-4 -6 -2 -17 5 -25 9 -10 7 -16 -6 -23 -22 -13 -11 -58
17 -67 43 -14 74 55 45 100 -17 26 -50 33 -61 15z"/>
<path d="M1550 2210 c-34 -64 13 -143 58 -98 15 15 16 58 2 58 -6 0 -9 12 -8
28 2 21 -2 28 -19 30 -14 2 -26 -4 -33 -18z"/>
<path d="M2242 894 c10 -10 20 -16 22 -13 3 3 -5 11 -17 18 -21 13 -21 12 -5
-5z"/>
<path d="M2326 797 c3 -10 9 -15 12 -12 3 3 0 11 -7 18 -10 9 -11 8 -5 -6z"/>
<path d="M2370 586 c0 -34 -5 -56 -12 -59 -8 -3 -6 -6 5 -6 14 -1 17 8 17 59
0 33 -2 60 -5 60 -3 0 -5 -24 -5 -54z"/>
</g>
</svg>
