<?xml version="1.0" standalone="no"?>
<!DOCTYPE svg PUBLIC "-//W3C//DTD SVG 20010904//EN"
 "http://www.w3.org/TR/2001/REC-SVG-20010904/DTD/svg10.dtd">
<svg version="1.0" xmlns="http://www.w3.org/2000/svg"
 width="268.000000pt" height="294.000000pt" viewBox="0 0 268.000000 294.000000"
 preserveAspectRatio="xMidYMid meet">

<g transform="translate(0.000000,294.000000) scale(0.100000,-0.100000)"
fill="#000000" stroke="none">
<path d="M1135 2524 c-128 -26 -198 -27 -278 -4 -57 17 -79 8 -87 -36 -4 -21
-11 -28 -25 -27 -11 1 -40 5 -65 8 -25 3 -51 2 -59 -4 -23 -15 -14 -80 18
-143 26 -51 27 -58 12 -58 -20 0 -51 -30 -51 -49 0 -18 29 -73 54 -101 21 -24
22 -30 15 -155 -7 -118 3 -338 17 -408 5 -22 11 -27 27 -25 22 3 22 7 27 230
3 124 8 229 11 232 3 4 39 -9 81 -28 177 -82 432 -98 663 -40 151 37 291 40
351 6 70 -40 78 -65 82 -239 4 -151 11 -182 40 -164 22 14 28 95 21 326 -5
198 -9 239 -28 298 -52 161 -141 256 -322 342 -147 70 -297 81 -504 39z"/>
<path d="M974 1719 c-38 -11 -79 -53 -71 -73 8 -20 36 -20 61 -1 26 19 90 19
106 0 15 -18 57 -20 63 -2 8 22 -14 48 -56 68 -46 20 -57 21 -103 8z"/>
<path d="M1594 1719 c-38 -11 -78 -53 -71 -73 8 -21 46 -20 69 1 10 9 32 16
48 16 16 0 38 -7 48 -16 23 -21 61 -22 68 -2 17 44 -93 95 -162 74z"/>
<path d="M990 1583 c-41 -15 -55 -87 -22 -116 29 -26 77 -22 101 9 27 35 26
59 -4 89 -23 24 -44 29 -75 18z"/>
<path d="M1595 1565 c-48 -47 -19 -115 48 -115 66 0 93 78 41 119 -35 27 -59
26 -89 -4z"/>
<path d="M1157 1143 c-20 -19 -3 -43 48 -69 50 -24 64 -26 138 -22 90 5 167
36 167 69 0 26 -26 30 -50 9 -45 -39 -207 -40 -260 -2 -32 24 -34 25 -43 15z"/>
<path d="M1571 682 c-19 -19 -64 -48 -100 -65 -57 -26 -78 -30 -151 -30 -100
1 -171 27 -239 88 -34 31 -46 36 -68 30 -34 -8 -186 -78 -209 -97 -43 -33
-120 -116 -134 -143 -8 -17 -17 -32 -20 -35 -6 -5 -30 -58 -30 -65 0 -3 317
-5 705 -5 634 0 705 1 705 15 0 9 -4 14 -9 11 -5 -4 -7 2 -5 11 6 23 -45 101
-107 162 -49 48 -142 100 -249 139 l-55 19 -34 -35z"/>
</g>
</svg>
