<?xml version="1.0" standalone="no"?>
<!DOCTYPE svg PUBLIC "-//W3C//DTD SVG 20010904//EN"
 "http://www.w3.org/TR/2001/REC-SVG-20010904/DTD/svg10.dtd">
<svg version="1.0" xmlns="http://www.w3.org/2000/svg"
 width="225.000000pt" height="225.000000pt" viewBox="0 0 225.000000 225.000000"
 preserveAspectRatio="xMidYMid meet">

<g transform="translate(0.000000,225.000000) scale(0.100000,-0.100000)"
fill="#000000" stroke="none">
<path d="M1373 1944 c-9 -24 5 -32 114 -64 34 -10 43 -18 45 -39 2 -18 13 -31
38 -43 64 -30 77 -31 101 -7 l22 22 75 -22 c50 -15 78 -19 85 -12 15 15 -9 39
-46 46 -54 11 -67 16 -63 24 3 4 -5 7 -17 7 -13 -1 -21 4 -19 12 5 28 -20 52
-74 69 -56 17 -56 17 -74 -5 l-18 -22 -76 25 c-91 30 -85 29 -93 9z"/>
<path d="M1808 1883 c6 -2 18 -2 25 0 6 3 1 5 -13 5 -14 0 -19 -2 -12 -5z"/>
<path d="M1933 1859 c9 -5 17 -17 17 -26 0 -9 3 -14 6 -10 11 11 -7 47 -24 47
-16 -1 -15 -2 1 -11z"/>
<path d="M1738 1773 c7 -3 16 -2 19 1 4 3 -2 6 -13 5 -11 0 -14 -3 -6 -6z"/>
<path d="M1866 1678 c5 -8 1 -9 -12 -4 -14 5 -16 4 -7 -5 6 -6 16 -8 22 -5 14
9 14 26 0 26 -5 0 -7 -5 -3 -12z"/>
<path d="M802 1344 c-18 -12 -22 -25 -22 -63 0 -54 15 -73 57 -73 34 0 53 26
53 72 0 61 -45 94 -88 64z"/>
<path d="M1380 1340 c-13 -13 -20 -34 -20 -60 0 -68 49 -97 98 -58 17 14 16
103 -2 117 -25 21 -56 21 -76 1z"/>
<path d="M1636 505 c-3 -13 -20 -47 -36 -75 -16 -27 -27 -50 -24 -50 3 0 -20
-23 -50 -51 -31 -28 -53 -56 -49 -62 3 -5 2 -7 -3 -4 -5 3 -34 -10 -64 -29
-120 -76 -314 -102 -440 -60 -73 24 -157 71 -198 110 -18 17 -36 30 -40 29 -4
-2 -7 1 -7 5 0 4 -15 26 -33 49 -18 23 -44 66 -58 97 -14 31 -32 56 -40 56 -9
0 -12 -5 -8 -12 4 -7 3 -8 -5 -4 -6 4 -20 4 -31 1 -18 -6 -18 -8 -5 -29 9 -13
13 -31 9 -40 -3 -9 -2 -16 4 -16 6 0 24 -23 40 -51 52 -90 146 -176 247 -224
146 -70 344 -86 477 -37 164 59 290 172 370 332 28 56 27 67 -7 73 -11 1 -25
6 -31 10 -7 4 -14 -3 -18 -18z"/>
<path d="M1776 446 c5 -27 -8 -59 -33 -85 -15 -15 -51 -67 -90 -130 -19 -31
-22 -51 -23 -133 l0 -98 130 0 c86 0 130 4 130 11 0 6 7 18 16 27 13 12 15 28
11 66 -10 95 -39 236 -48 230 -5 -3 -6 2 -3 10 5 14 -35 88 -56 101 -17 10
-11 -7 8 -22 15 -13 14 -13 -8 0 -14 8 -25 19 -25 25 0 6 -3 14 -7 17 -4 4 -5
-4 -2 -19z"/>
<path d="M430 435 c-13 -14 -20 -25 -16 -25 4 0 -3 -10 -14 -22 -12 -13 -19
-31 -16 -40 2 -10 1 -16 -4 -13 -8 5 -35 -126 -47 -223 -4 -38 -1 -57 13 -81
l18 -31 128 0 128 0 0 90 c0 103 -11 130 -100 254 -33 48 -46 74 -40 81 14 17
-1 27 -18 12 -13 -10 -15 -9 -9 6 9 23 5 22 -23 -8z m-39 -402 c-12 -20 -14
-14 -5 12 4 9 9 14 11 11 3 -2 0 -13 -6 -23z"/>
</g>
</svg>
