<?xml version="1.0" standalone="no"?>
<!DOCTYPE svg PUBLIC "-//W3C//DTD SVG 20010904//EN"
 "http://www.w3.org/TR/2001/REC-SVG-20010904/DTD/svg10.dtd">
<svg version="1.0" xmlns="http://www.w3.org/2000/svg"
 width="268.000000pt" height="268.000000pt" viewBox="0 0 268.000000 268.000000"
 preserveAspectRatio="xMidYMid meet">

<g transform="translate(0.000000,268.000000) scale(0.100000,-0.100000)"
fill="#000000" stroke="none">
<path d="M1240 2219 l-35 -8 38 3 c54 3 46 -10 -11 -18 -48 -6 -105 -35 -71
-36 8 0 20 5 27 12 9 9 12 9 12 0 0 -7 -5 -12 -11 -12 -8 0 -8 -5 1 -15 16
-19 7 -19 -31 0 -16 9 -35 13 -41 9 -7 -5 2 -12 23 -19 33 -12 33 -12 -23 -11
l-57 1 27 22 c15 12 33 22 39 23 14 0 83 40 70 40 -9 0 -94 -40 -137 -65 -14
-8 -38 -17 -54 -20 -33 -7 -136 -107 -116 -113 7 -3 19 3 27 14 11 16 13 16
13 1 0 -18 -33 -40 -44 -29 -4 4 -16 -4 -26 -18 -13 -18 -16 -29 -9 -42 6 -10
14 -16 20 -13 11 8 12 -6 0 -24 -12 -18 -39 -23 -48 -9 -3 7 -1 8 5 4 8 -5 10
-1 6 11 -5 16 -4 16 10 -1 9 -12 16 -15 16 -7 0 7 -6 19 -14 26 -12 12 -17 7
-34 -33 -29 -70 -54 -161 -46 -173 4 -6 1 -15 -6 -19 -7 -4 -13 -32 -14 -69 0
-33 -4 -61 -8 -61 -5 0 -8 -15 -8 -32 1 -28 2 -30 11 -15 5 9 7 22 4 27 -3 6
-2 10 3 10 6 0 8 17 5 40 -5 33 -3 40 12 40 13 0 16 6 12 23 -4 12 -2 28 2 36
6 9 10 1 13 -24 3 -30 1 -39 -13 -42 -14 -4 -17 -14 -14 -50 3 -35 -1 -50 -17
-66 -19 -20 -20 -30 -14 -138 6 -120 24 -227 57 -342 28 -95 52 -147 103 -226
l44 -68 108 29 c60 15 121 31 137 34 24 6 27 11 27 51 0 33 -4 45 -17 49 -56
18 -166 79 -205 114 -55 47 -98 129 -98 182 0 31 -4 38 -19 38 -26 0 -78 44
-98 84 -9 17 -19 61 -22 97 -6 58 -4 68 16 89 25 26 89 32 103 10 6 -9 9 -9
14 1 3 8 3 1 0 -16 -8 -41 0 -30 25 33 12 29 36 77 55 106 34 53 39 101 12
118 -6 4 -7 10 -3 15 5 4 12 1 18 -7 8 -13 12 -11 28 8 12 14 22 18 26 12 4
-6 -5 -20 -19 -31 -14 -11 -26 -27 -26 -36 0 -8 23 9 53 40 52 55 111 97 135
97 7 0 10 -5 6 -11 -6 -10 60 -79 122 -126 30 -24 49 -30 39 -13 -4 6 5 5 19
-2 14 -6 26 -16 26 -22 0 -6 -5 -5 -12 2 -14 14 -28 16 -28 4 0 -8 68 -42 84
-41 5 0 12 -4 15 -10 9 -14 131 -51 131 -40 0 5 -9 9 -21 9 -19 0 -19 1 -4 16
13 14 21 15 42 5 20 -9 28 -9 33 0 6 8 9 8 14 0 4 -6 2 -11 -5 -11 -10 0 -10
-3 -1 -12 10 -10 15 -10 23 2 9 13 10 12 6 -2 -7 -20 35 -51 57 -42 8 3 22 1
31 -4 16 -8 16 -9 1 -15 -10 -4 -15 -3 -11 3 3 5 -1 7 -9 4 -12 -5 -12 -8 2
-25 20 -23 23 -24 16 -4 -5 11 -2 13 10 9 11 -4 15 -13 11 -25 -4 -11 -2 -19
4 -19 6 0 11 4 11 8 0 4 14 16 30 26 17 9 28 22 25 27 -4 5 -2 9 3 9 6 0 12
-7 16 -15 3 -8 12 -15 21 -15 8 0 15 -5 15 -12 0 -20 12 0 21 34 5 20 6 -8 2
-72 -6 -114 -22 -165 -67 -212 -15 -16 -38 -28 -51 -28 -22 0 -25 -4 -25 -37
-1 -57 -31 -112 -93 -171 -51 -47 -181 -122 -214 -122 -9 0 -13 -16 -13 -50 0
-46 2 -50 24 -50 14 0 27 -4 30 -9 3 -5 23 -12 43 -15 104 -18 143 -28 138
-36 -3 -5 4 -8 16 -7 45 3 137 168 178 317 68 247 67 564 -2 765 -29 84 -62
147 -71 138 -4 -4 -5 -1 -1 7 3 9 -12 34 -36 60 -22 25 -38 41 -36 35 7 -14
-51 -17 -59 -4 -4 7 1 9 14 5 34 -11 34 20 -1 46 -77 57 -122 78 -227 104 -59
14 -184 16 -240 3z m153 -6 c-13 -2 -35 -2 -50 0 -16 2 -5 4 22 4 28 0 40 -2
28 -4z m74 -9 c-3 -3 -12 -4 -19 -1 -8 3 -5 6 6 6 11 1 17 -2 13 -5z m60 -10
c-3 -3 -12 -4 -19 -1 -8 3 -5 6 6 6 11 1 17 -2 13 -5z m84 -36 c35 -15 46 -24
37 -29 -19 -13 -36 -11 -18 2 12 9 11 10 -8 6 -12 -3 -20 -2 -17 3 6 10 -19
20 -50 20 -13 0 -27 5 -30 10 -10 17 34 11 86 -12z m-43 -15 c-10 -2 -26 -2
-35 0 -10 3 -2 5 17 5 19 0 27 -2 18 -5z m130 -36 c20 -21 20 -23 2 -23 -10 0
-16 4 -13 9 2 4 -1 14 -7 22 -20 24 -6 17 18 -8z m-661 -24 c-3 -10 -5 -4 -5
12 0 17 2 24 5 18 2 -7 2 -21 0 -30z m-32 8 c-3 -6 -17 -11 -31 -11 -13 0 -24
-5 -24 -11 0 -7 12 -9 32 -7 18 3 38 0 45 -7 9 -10 3 -11 -33 -7 -40 4 -44 3
-38 -14 4 -11 4 -16 0 -13 -4 4 -9 18 -12 33 -3 19 0 28 13 32 10 3 25 9 33
14 18 9 25 5 15 -9z m791 -82 c12 -25 13 -34 3 -43 -9 -8 -10 -8 -5 2 4 7 1
24 -8 37 -16 25 -20 35 -11 35 2 0 12 -14 21 -31z m-836 -11 c0 -7 -11 -18
-25 -25 -30 -13 -31 -10 -8 17 20 23 33 26 33 8z m819 -28 c0 -10 -3 -8 -9 5
-12 27 -12 43 0 25 5 -8 9 -22 9 -30z m-899 6 c0 -2 -8 -10 -17 -17 -16 -13
-17 -12 -4 4 13 16 21 21 21 13z m967 -78 c-3 -8 -6 -5 -6 6 -1 11 2 17 5 13
3 -3 4 -12 1 -19z m19 -34 c-5 -17 -3 -23 4 -19 5 3 10 2 10 -4 0 -5 -5 -13
-10 -16 -6 -3 -8 -16 -5 -28 3 -12 1 -35 -4 -52 -7 -22 -8 -10 -6 50 3 95 3
95 11 95 3 0 3 -12 0 -26z m-706 9 c-8 -3 -24 -13 -35 -22 -20 -16 -20 -16 -1
7 11 12 26 22 35 21 14 0 14 -1 1 -6z m77 1 c-3 -3 -12 -4 -19 -1 -8 3 -5 6 6
6 11 1 17 -2 13 -5z m43 -4 c0 -5 -5 -10 -11 -10 -5 0 -7 5 -4 10 3 6 8 10 11
10 2 0 4 -4 4 -10z m-200 -10 c-19 -13 -30 -13 -30 0 0 6 10 10 23 10 18 0 19
-2 7 -10z m170 -27 c0 -22 29 -53 50 -53 26 0 56 -38 42 -52 -9 -9 -12 -8 -12
5 0 10 -14 23 -34 31 -34 14 -81 68 -69 80 12 11 23 6 23 -11z m-162 -13 c-12
-18 -38 -35 -38 -25 0 14 26 45 37 45 11 0 11 -4 1 -20z m802 -10 c0 -5 -4
-10 -10 -10 -5 0 -10 5 -10 10 0 6 5 10 10 10 6 0 10 -4 10 -10z m16 -83 c-2
-7 -5 -4 -5 6 -1 9 -5 17 -11 17 -5 0 -10 10 -10 23 1 21 2 20 16 -6 8 -16 13
-34 10 -40z m-1106 39 c0 -3 -4 -8 -10 -11 -5 -3 -10 -1 -10 4 0 6 5 11 10 11
6 0 10 -2 10 -4z m1085 -36 c3 -5 1 -10 -4 -10 -6 0 -11 5 -11 10 0 6 2 10 4
10 3 0 8 -4 11 -10z m-913 -46 c-9 -16 -10 -14 -9 8 1 15 6 23 11 18 4 -4 4
-16 -2 -26z m465 -10 c-3 -3 -12 -4 -19 -1 -8 3 -5 6 6 6 11 1 17 -2 13 -5z
m490 -46 c-3 -7 -5 -2 -5 12 0 14 2 19 5 13 2 -7 2 -19 0 -25z m-1001 -6 c1
-7 0 -8 -3 -2 -2 5 -9 10 -14 10 -13 0 -11 -28 2 -32 6 -2 5 -14 -5 -33 -9
-17 -16 -27 -16 -23 0 3 -3 14 -7 24 -5 13 -3 15 7 9 10 -6 11 -2 6 19 -4 15
-4 31 0 37 7 13 27 7 30 -9z m614 6 c0 -10 -9 -9 -35 2 -17 8 -16 8 8 7 15 -1
27 -5 27 -9z m207 -6 c-12 -15 -49 -12 -54 4 -2 6 11 10 31 10 27 -1 32 -4 23
-14z m-960 -59 c-3 -10 -5 -2 -5 17 0 19 2 27 5 18 2 -10 2 -26 0 -35z m943
27 c0 -5 -4 -10 -9 -10 -6 0 -13 5 -16 10 -3 6 1 10 9 10 9 0 16 -4 16 -10z
m-855 -48 c-3 -3 -11 0 -18 7 -9 10 -8 11 6 5 10 -3 15 -9 12 -12z m1040 8 c8
-13 -5 -13 -25 0 -13 8 -13 10 2 10 9 0 20 -4 23 -10z m-100 -18 c-3 -3 -11 0
-18 7 -9 10 -8 11 6 5 10 -3 15 -9 12 -12z"/>
<path d="M1054 1551 c-61 -37 -59 -62 2 -30 38 20 84 21 127 4 13 -5 17 -2 17
13 0 36 -95 44 -146 13z"/>
<path d="M1510 1561 c-14 -4 -26 -15 -28 -25 -3 -16 0 -18 19 -12 60 17 85 17
123 -3 45 -24 57 -20 31 9 -29 32 -92 46 -145 31z"/>
<path d="M1083 1448 c-14 -18 -8 -99 8 -109 33 -21 51 6 47 68 -2 40 -7 49
-24 51 -11 2 -25 -3 -31 -10z m37 -29 c0 -5 -7 -9 -15 -9 -15 0 -20 12 -9 23
8 8 24 -1 24 -14z"/>
<path d="M1546 1444 c-3 -9 -6 -33 -6 -54 0 -48 28 -70 54 -44 19 18 21 85 4
102 -17 17 -45 15 -52 -4z m44 -25 c0 -5 -7 -9 -15 -9 -15 0 -20 12 -9 23 8 8
24 -1 24 -14z"/>
<path d="M1766 692 c-2 -4 4 -8 14 -8 10 0 16 4 14 8 -3 4 -9 8 -14 8 -5 0
-11 -4 -14 -8z"/>
<path d="M1861 564 c0 -11 3 -14 6 -6 3 7 2 16 -1 19 -3 4 -6 -2 -5 -13z"/>
<path d="M828 523 c6 -2 18 -2 25 0 6 3 1 5 -13 5 -14 0 -19 -2 -12 -5z"/>
<path d="M1107 523 c133 -2 353 -2 490 0 136 1 28 2 -242 2 -269 0 -381 -1
-248 -2z"/>
</g>
</svg>
